<svg width="51" height="101" viewBox="0 0 51 101" fill="none" xmlns="http://www.w3.org/2000/svg">
<g id="Frame 10123844">
<g id="Rectangle 40" filter="url(#filter0_di_83_8580)">
<path d="M2.91113 10.8768C2.91113 5.88693 6.95624 1.84182 11.9461 1.84182L38.4298 1.8418C43.4197 1.8418 47.4649 5.88691 47.4649 10.8768V87.9711C47.4649 92.961 43.4198 97.0061 38.4299 97.0061L28.2107 97.0061C23.257 97.0061 19.2271 93.0173 19.1762 88.0639L18.8328 54.6292C18.788 50.2645 15.237 46.7499 10.8722 46.7499C6.47541 46.7499 2.91113 43.1856 2.91113 38.7889L2.91113 10.8768Z" fill="#1D1D20"/>
<path d="M2.91113 10.8768C2.91113 5.88693 6.95624 1.84182 11.9461 1.84182L38.4298 1.8418C43.4197 1.8418 47.4649 5.88691 47.4649 10.8768V87.9711C47.4649 92.961 43.4198 97.0061 38.4299 97.0061L28.2107 97.0061C23.257 97.0061 19.2271 93.0173 19.1762 88.0639L18.8328 54.6292C18.788 50.2645 15.237 46.7499 10.8722 46.7499C6.47541 46.7499 2.91113 43.1856 2.91113 38.7889L2.91113 10.8768Z" fill="url(#paint0_linear_83_8580)" fill-opacity="0.05"/>
<path d="M4.16113 10.8768C4.16113 6.57728 7.64659 3.09182 11.9461 3.09182L38.4298 3.0918C42.7294 3.0918 46.2149 6.57726 46.2149 10.8768V87.9711C46.2149 92.2706 42.7294 95.7561 38.4299 95.7561L28.2107 95.7561C23.9424 95.7561 20.47 92.3192 20.4261 88.051L20.0827 54.6163C20.0309 49.5664 15.9224 45.4999 10.8722 45.4999C7.16577 45.4999 4.16113 42.4953 4.16113 38.7889V10.8768Z" stroke="black" stroke-opacity="0.5" stroke-width="2.5"/>
</g>
<g id="Rectangle 41">
<g filter="url(#filter1_i_83_8580)">
<path d="M2.91113 10.8768C2.91113 5.88693 6.95624 1.84182 11.9461 1.84182L38.4298 1.8418C43.4197 1.8418 47.4649 5.88691 47.4649 10.8768V86.3132C47.4649 91.3031 43.4198 95.3482 38.4299 95.3483L28.2091 95.3483C23.256 95.3483 19.2264 91.3605 19.1746 86.4077L18.8342 53.8461C18.7886 49.4816 15.2376 45.9676 10.8729 45.9676C6.47573 45.9676 2.91113 42.403 2.91113 38.0058L2.91113 10.8768Z" fill="#1D1D20"/>
<path d="M2.91113 10.8768C2.91113 5.88693 6.95624 1.84182 11.9461 1.84182L38.4298 1.8418C43.4197 1.8418 47.4649 5.88691 47.4649 10.8768V86.3132C47.4649 91.3031 43.4198 95.3482 38.4299 95.3483L28.2091 95.3483C23.256 95.3483 19.2264 91.3605 19.1746 86.4077L18.8342 53.8461C18.7886 49.4816 15.2376 45.9676 10.8729 45.9676C6.47573 45.9676 2.91113 42.403 2.91113 38.0058L2.91113 10.8768Z" fill="url(#paint1_linear_83_8580)" fill-opacity="0.05"/>
</g>
<path d="M3.30113 10.8768C3.30113 6.10232 7.17163 2.23182 11.9461 2.23182L38.4298 2.2318C43.2043 2.2318 47.0749 6.1023 47.0749 10.8768V86.3132C47.0749 91.0877 43.2044 94.9582 38.4299 94.9583L28.2091 94.9583C23.4698 94.9583 19.6141 91.1426 19.5646 86.4036L19.2242 53.842C19.1763 49.2638 15.4514 45.5776 10.8729 45.5776C6.69113 45.5776 3.30113 42.1876 3.30113 38.0058L3.30113 10.8768Z" stroke="black" stroke-opacity="0.5" stroke-width="0.78"/>
</g>
</g>
<defs>
<filter id="filter0_di_83_8580" x="0.961133" y="0.281797" width="49.2337" height="99.8441" filterUnits="userSpaceOnUse" color-interpolation-filters="sRGB">
<feFlood flood-opacity="0" result="BackgroundImageFix"/>
<feColorMatrix in="SourceAlpha" type="matrix" values="0 0 0 0 0 0 0 0 0 0 0 0 0 0 0 0 0 0 127 0" result="hardAlpha"/>
<feOffset dx="0.39" dy="0.78"/>
<feGaussianBlur stdDeviation="1.17"/>
<feComposite in2="hardAlpha" operator="out"/>
<feColorMatrix type="matrix" values="0 0 0 0 0 0 0 0 0 0 0 0 0 0 0 0 0 0 0.25 0"/>
<feBlend mode="normal" in2="BackgroundImageFix" result="effect1_dropShadow_83_8580"/>
<feBlend mode="normal" in="SourceGraphic" in2="effect1_dropShadow_83_8580" result="shape"/>
<feColorMatrix in="SourceAlpha" type="matrix" values="0 0 0 0 0 0 0 0 0 0 0 0 0 0 0 0 0 0 127 0" result="hardAlpha"/>
<feOffset dy="1.56"/>
<feGaussianBlur stdDeviation="0.78"/>
<feComposite in2="hardAlpha" operator="arithmetic" k2="-1" k3="1"/>
<feColorMatrix type="matrix" values="0 0 0 0 1 0 0 0 0 1 0 0 0 0 1 0 0 0 0.25 0"/>
<feBlend mode="normal" in2="shape" result="effect2_innerShadow_83_8580"/>
</filter>
<filter id="filter1_i_83_8580" x="2.91113" y="1.8418" width="44.5537" height="95.0668" filterUnits="userSpaceOnUse" color-interpolation-filters="sRGB">
<feFlood flood-opacity="0" result="BackgroundImageFix"/>
<feBlend mode="normal" in="SourceGraphic" in2="BackgroundImageFix" result="shape"/>
<feColorMatrix in="SourceAlpha" type="matrix" values="0 0 0 0 0 0 0 0 0 0 0 0 0 0 0 0 0 0 127 0" result="hardAlpha"/>
<feOffset dy="1.56"/>
<feGaussianBlur stdDeviation="0.78"/>
<feComposite in2="hardAlpha" operator="arithmetic" k2="-1" k3="1"/>
<feColorMatrix type="matrix" values="0 0 0 0 1 0 0 0 0 1 0 0 0 0 1 0 0 0 0.25 0"/>
<feBlend mode="normal" in2="shape" result="effect1_innerShadow_83_8580"/>
</filter>
<linearGradient id="paint0_linear_83_8580" x1="25.688" y1="1.8418" x2="25.688" y2="95.7875" gradientUnits="userSpaceOnUse">
<stop stop-opacity="0"/>
<stop offset="1" stop-color="white"/>
</linearGradient>
<linearGradient id="paint1_linear_83_8580" x1="25.688" y1="1.8418" x2="25.688" y2="94.1508" gradientUnits="userSpaceOnUse">
<stop stop-opacity="0"/>
<stop offset="1" stop-color="white"/>
</linearGradient>
</defs>
</svg>
